<mxfile host="65bd71144e">
    <diagram id="xiQVBkAU99vU0_4jEGwp" name="Page-1">
        <mxGraphModel dx="2436" dy="1611" grid="1" gridSize="10" guides="1" tooltips="1" connect="1" arrows="1" fold="1" page="1" pageScale="1" pageWidth="1100" pageHeight="850" background="#ffffff" math="0" shadow="0">
            <root>
                <mxCell id="0"/>
                <mxCell id="1" parent="0"/>
                <mxCell id="106" value="" style="edgeStyle=none;html=1;strokeColor=#000000;strokeWidth=2;fontColor=#18141D;endArrow=none;endFill=0;" edge="1" parent="1" source="3" target="102">
                    <mxGeometry relative="1" as="geometry"/>
                </mxCell>
                <mxCell id="108" style="edgeStyle=none;html=1;entryX=0;entryY=1;entryDx=0;entryDy=0;strokeColor=#000000;strokeWidth=2;fontColor=#18141D;endArrow=none;endFill=0;" edge="1" parent="1" source="3" target="105">
                    <mxGeometry relative="1" as="geometry"/>
                </mxCell>
                <mxCell id="109" style="edgeStyle=none;html=1;entryX=0;entryY=0.5;entryDx=0;entryDy=0;strokeColor=#000000;strokeWidth=2;fontColor=#18141D;endArrow=none;endFill=0;" edge="1" parent="1" source="3" target="107">
                    <mxGeometry relative="1" as="geometry"/>
                </mxCell>
                <mxCell id="3" value="&lt;b&gt;&lt;font color=&quot;#18141d&quot; style=&quot;font-size: 15px;&quot;&gt;Invitation&lt;/font&gt;&lt;/b&gt;" style="whiteSpace=wrap;html=1;align=center;fillColor=#FFFFFF;strokeColor=#000000;strokeWidth=4;gradientColor=default;" vertex="1" parent="1">
                    <mxGeometry x="870" y="160" width="140" height="80" as="geometry"/>
                </mxCell>
                <mxCell id="73" style="edgeStyle=none;html=1;entryX=1;entryY=1;entryDx=0;entryDy=0;fontColor=#18141D;strokeColor=#000000;endArrow=none;endFill=0;strokeWidth=2;" edge="1" parent="1" source="68" target="72">
                    <mxGeometry relative="1" as="geometry"/>
                </mxCell>
                <mxCell id="80" style="edgeStyle=none;html=1;entryX=0.5;entryY=1;entryDx=0;entryDy=0;strokeColor=#000000;strokeWidth=2;fontColor=#18141D;endArrow=none;endFill=0;" edge="1" parent="1" source="68" target="74">
                    <mxGeometry relative="1" as="geometry"/>
                </mxCell>
                <mxCell id="82" style="edgeStyle=none;html=1;entryX=0.5;entryY=1;entryDx=0;entryDy=0;strokeColor=#000000;strokeWidth=2;fontColor=#18141D;endArrow=none;endFill=0;" edge="1" parent="1" source="68" target="81">
                    <mxGeometry relative="1" as="geometry"/>
                </mxCell>
                <mxCell id="94" style="edgeStyle=none;html=1;entryX=0;entryY=1;entryDx=0;entryDy=0;strokeColor=#000000;strokeWidth=2;fontColor=#18141D;endArrow=none;endFill=0;" edge="1" parent="1" source="68" target="83">
                    <mxGeometry relative="1" as="geometry"/>
                </mxCell>
                <mxCell id="98" style="edgeStyle=none;html=1;entryX=1;entryY=0.5;entryDx=0;entryDy=0;strokeColor=#000000;strokeWidth=2;fontColor=#18141D;endArrow=none;endFill=0;" edge="1" parent="1" source="68" target="95">
                    <mxGeometry relative="1" as="geometry"/>
                </mxCell>
                <mxCell id="99" style="edgeStyle=none;html=1;entryX=1;entryY=0.5;entryDx=0;entryDy=0;strokeColor=#000000;strokeWidth=2;fontColor=#18141D;endArrow=none;endFill=0;" edge="1" parent="1" source="68" target="96">
                    <mxGeometry relative="1" as="geometry"/>
                </mxCell>
                <mxCell id="100" style="edgeStyle=none;html=1;entryX=1;entryY=0;entryDx=0;entryDy=0;strokeColor=#000000;strokeWidth=2;fontColor=#18141D;endArrow=none;endFill=0;" edge="1" parent="1" source="68" target="97">
                    <mxGeometry relative="1" as="geometry"/>
                </mxCell>
                <mxCell id="68" value="&lt;b&gt;&lt;font color=&quot;#18141d&quot; style=&quot;font-size: 15px;&quot;&gt;Player&lt;/font&gt;&lt;/b&gt;" style="whiteSpace=wrap;html=1;align=center;fillColor=#FFFFFF;strokeColor=#000000;strokeWidth=4;gradientColor=default;" vertex="1" parent="1">
                    <mxGeometry x="170" y="160" width="140" height="80" as="geometry"/>
                </mxCell>
                <mxCell id="113" style="edgeStyle=none;html=1;entryX=1;entryY=1;entryDx=0;entryDy=0;strokeColor=#000000;strokeWidth=2;fontColor=#18141D;endArrow=none;endFill=0;" edge="1" parent="1" source="69" target="110">
                    <mxGeometry relative="1" as="geometry"/>
                </mxCell>
                <mxCell id="114" style="edgeStyle=none;html=1;entryX=1;entryY=0.5;entryDx=0;entryDy=0;strokeColor=#000000;strokeWidth=2;fontColor=#18141D;endArrow=none;endFill=0;" edge="1" parent="1" source="69" target="111">
                    <mxGeometry relative="1" as="geometry"/>
                </mxCell>
                <mxCell id="115" style="edgeStyle=none;html=1;entryX=1;entryY=0.5;entryDx=0;entryDy=0;strokeColor=#000000;strokeWidth=2;fontColor=#18141D;endArrow=none;endFill=0;" edge="1" parent="1" source="69" target="112">
                    <mxGeometry relative="1" as="geometry"/>
                </mxCell>
                <mxCell id="69" value="&lt;b&gt;&lt;font color=&quot;#18141d&quot; style=&quot;font-size: 15px;&quot;&gt;Game&lt;/font&gt;&lt;/b&gt;" style="whiteSpace=wrap;html=1;align=center;fillColor=#FFFFFF;strokeColor=#000000;strokeWidth=4;gradientColor=default;" vertex="1" parent="1">
                    <mxGeometry x="170" y="510" width="140" height="80" as="geometry"/>
                </mxCell>
                <mxCell id="126" style="edgeStyle=none;html=1;entryX=0;entryY=1;entryDx=0;entryDy=0;strokeColor=#000000;strokeWidth=2;fontColor=#18141D;endArrow=none;endFill=0;" edge="1" parent="1" source="70" target="124">
                    <mxGeometry relative="1" as="geometry"/>
                </mxCell>
                <mxCell id="127" style="edgeStyle=none;html=1;entryX=0;entryY=1;entryDx=0;entryDy=0;strokeColor=#000000;strokeWidth=2;fontColor=#18141D;endArrow=none;endFill=0;" edge="1" parent="1" source="70" target="123">
                    <mxGeometry relative="1" as="geometry"/>
                </mxCell>
                <mxCell id="128" style="edgeStyle=none;html=1;entryX=0;entryY=0.5;entryDx=0;entryDy=0;strokeColor=#000000;strokeWidth=2;fontColor=#18141D;endArrow=none;endFill=0;" edge="1" parent="1" source="70" target="122">
                    <mxGeometry relative="1" as="geometry"/>
                </mxCell>
                <mxCell id="129" style="edgeStyle=none;html=1;entryX=0;entryY=0.5;entryDx=0;entryDy=0;strokeColor=#000000;strokeWidth=2;fontColor=#18141D;endArrow=none;endFill=0;" edge="1" parent="1" source="70" target="121">
                    <mxGeometry relative="1" as="geometry"/>
                </mxCell>
                <mxCell id="130" style="edgeStyle=none;html=1;entryX=0;entryY=0;entryDx=0;entryDy=0;strokeColor=#000000;strokeWidth=2;fontColor=#18141D;endArrow=none;endFill=0;" edge="1" parent="1" source="70" target="120">
                    <mxGeometry relative="1" as="geometry"/>
                </mxCell>
                <mxCell id="131" style="edgeStyle=none;html=1;entryX=0.5;entryY=0;entryDx=0;entryDy=0;strokeColor=#000000;strokeWidth=2;fontColor=#18141D;endArrow=none;endFill=0;" edge="1" parent="1" source="70" target="119">
                    <mxGeometry relative="1" as="geometry"/>
                </mxCell>
                <mxCell id="132" style="edgeStyle=none;html=1;entryX=0.5;entryY=0;entryDx=0;entryDy=0;strokeColor=#000000;strokeWidth=2;fontColor=#18141D;endArrow=none;endFill=0;" edge="1" parent="1" source="70" target="118">
                    <mxGeometry relative="1" as="geometry"/>
                </mxCell>
                <mxCell id="133" style="edgeStyle=none;html=1;strokeColor=#000000;strokeWidth=2;fontColor=#18141D;endArrow=none;endFill=0;entryX=0.5;entryY=0;entryDx=0;entryDy=0;" edge="1" parent="1" source="70" target="117">
                    <mxGeometry relative="1" as="geometry">
                        <mxPoint x="940" y="620" as="targetPoint"/>
                    </mxGeometry>
                </mxCell>
                <mxCell id="134" style="edgeStyle=none;html=1;entryX=1;entryY=0.5;entryDx=0;entryDy=0;strokeColor=#000000;strokeWidth=2;fontColor=#18141D;endArrow=none;endFill=0;" edge="1" parent="1" source="70" target="116">
                    <mxGeometry relative="1" as="geometry"/>
                </mxCell>
                <mxCell id="70" value="&lt;b&gt;&lt;font color=&quot;#18141d&quot; style=&quot;font-size: 15px;&quot;&gt;Move&lt;/font&gt;&lt;/b&gt;" style="whiteSpace=wrap;html=1;align=center;fillColor=#FFFFFF;strokeColor=#000000;strokeWidth=4;gradientColor=default;" vertex="1" parent="1">
                    <mxGeometry x="870" y="510" width="140" height="80" as="geometry"/>
                </mxCell>
                <mxCell id="72" value="ID" style="ellipse;whiteSpace=wrap;html=1;align=center;fontStyle=4;strokeColor=#000000;strokeWidth=4;fontColor=#18141D;fillColor=#FFFFFF;gradientColor=default;" vertex="1" parent="1">
                    <mxGeometry x="-15" y="100" width="70" height="40" as="geometry"/>
                </mxCell>
                <mxCell id="77" style="edgeStyle=none;html=1;entryX=0.5;entryY=1;entryDx=0;entryDy=0;strokeColor=#000000;strokeWidth=2;fontColor=#18141D;endArrow=none;endFill=0;" edge="1" parent="1" source="74" target="76">
                    <mxGeometry relative="1" as="geometry"/>
                </mxCell>
                <mxCell id="79" style="edgeStyle=none;html=1;strokeColor=#000000;strokeWidth=2;fontColor=#18141D;endArrow=none;endFill=0;entryX=0.5;entryY=1;entryDx=0;entryDy=0;" edge="1" parent="1" source="74" target="75">
                    <mxGeometry relative="1" as="geometry"/>
                </mxCell>
                <mxCell id="74" value="Name" style="ellipse;whiteSpace=wrap;html=1;align=center;strokeColor=#000000;strokeWidth=4;fontColor=#18141D;fillColor=#FFFFFF;gradientColor=default;" vertex="1" parent="1">
                    <mxGeometry x="80" y="70" width="80" height="40" as="geometry"/>
                </mxCell>
                <mxCell id="75" value="First Name" style="ellipse;whiteSpace=wrap;html=1;align=center;strokeColor=#000000;strokeWidth=4;fontColor=#18141D;fillColor=#FFFFFF;gradientColor=default;" vertex="1" parent="1">
                    <mxGeometry x="15" y="20" width="80" height="40" as="geometry"/>
                </mxCell>
                <mxCell id="76" value="Last Name" style="ellipse;whiteSpace=wrap;html=1;align=center;strokeColor=#000000;strokeWidth=4;fontColor=#18141D;fillColor=#FFFFFF;gradientColor=default;" vertex="1" parent="1">
                    <mxGeometry x="110" y="10" width="80" height="40" as="geometry"/>
                </mxCell>
                <mxCell id="81" value="User Name" style="ellipse;whiteSpace=wrap;html=1;align=center;dashed=1;strokeColor=#000000;strokeWidth=4;fontColor=#18141D;fillColor=#FFFFFF;gradientColor=default;" vertex="1" parent="1">
                    <mxGeometry x="190" y="60" width="70" height="40" as="geometry"/>
                </mxCell>
                <mxCell id="89" style="edgeStyle=none;html=1;entryX=0.5;entryY=1;entryDx=0;entryDy=0;strokeColor=#000000;strokeWidth=2;fontColor=#18141D;endArrow=none;endFill=0;" edge="1" parent="1" source="83" target="84">
                    <mxGeometry relative="1" as="geometry"/>
                </mxCell>
                <mxCell id="90" style="edgeStyle=none;html=1;entryX=0.5;entryY=1;entryDx=0;entryDy=0;strokeColor=#000000;strokeWidth=2;fontColor=#18141D;endArrow=none;endFill=0;" edge="1" parent="1" source="83" target="85">
                    <mxGeometry relative="1" as="geometry"/>
                </mxCell>
                <mxCell id="91" style="edgeStyle=none;html=1;entryX=0;entryY=1;entryDx=0;entryDy=0;strokeColor=#000000;strokeWidth=2;fontColor=#18141D;endArrow=none;endFill=0;" edge="1" parent="1" source="83" target="86">
                    <mxGeometry relative="1" as="geometry"/>
                </mxCell>
                <mxCell id="92" style="edgeStyle=none;html=1;entryX=0;entryY=0.5;entryDx=0;entryDy=0;strokeColor=#000000;strokeWidth=2;fontColor=#18141D;endArrow=none;endFill=0;" edge="1" parent="1" source="83" target="87">
                    <mxGeometry relative="1" as="geometry"/>
                </mxCell>
                <mxCell id="93" style="edgeStyle=none;html=1;entryX=0;entryY=0;entryDx=0;entryDy=0;strokeColor=#000000;strokeWidth=2;fontColor=#18141D;endArrow=none;endFill=0;" edge="1" parent="1" source="83">
                    <mxGeometry relative="1" as="geometry">
                        <mxPoint x="421.7157287525383" y="95.85786437626905" as="targetPoint"/>
                    </mxGeometry>
                </mxCell>
                <mxCell id="83" value="Address" style="ellipse;whiteSpace=wrap;html=1;align=center;strokeColor=#000000;strokeWidth=4;fontColor=#18141D;fillColor=#FFFFFF;gradientColor=default;" vertex="1" parent="1">
                    <mxGeometry x="280" y="60" width="80" height="40" as="geometry"/>
                </mxCell>
                <mxCell id="84" value="Street" style="ellipse;whiteSpace=wrap;html=1;align=center;strokeColor=#000000;strokeWidth=4;fontColor=#18141D;fillColor=#FFFFFF;gradientColor=default;" vertex="1" parent="1">
                    <mxGeometry x="230" y="-10" width="80" height="40" as="geometry"/>
                </mxCell>
                <mxCell id="85" value="Zip Code" style="ellipse;whiteSpace=wrap;html=1;align=center;strokeColor=#000000;strokeWidth=4;fontColor=#18141D;fillColor=#FFFFFF;gradientColor=default;" vertex="1" parent="1">
                    <mxGeometry x="330" y="-10" width="80" height="40" as="geometry"/>
                </mxCell>
                <mxCell id="86" value="State" style="ellipse;whiteSpace=wrap;html=1;align=center;strokeColor=#000000;strokeWidth=4;fontColor=#18141D;fillColor=#FFFFFF;gradientColor=default;" vertex="1" parent="1">
                    <mxGeometry x="420" width="80" height="40" as="geometry"/>
                </mxCell>
                <mxCell id="87" value="City" style="ellipse;whiteSpace=wrap;html=1;align=center;strokeColor=#000000;strokeWidth=4;fontColor=#18141D;fillColor=#FFFFFF;gradientColor=default;" vertex="1" parent="1">
                    <mxGeometry x="470" y="40" width="80" height="40" as="geometry"/>
                </mxCell>
                <mxCell id="88" value="Country" style="ellipse;whiteSpace=wrap;html=1;align=center;strokeColor=#000000;strokeWidth=4;fontColor=#18141D;fillColor=#FFFFFF;gradientColor=default;" vertex="1" parent="1">
                    <mxGeometry x="420" y="80" width="80" height="40" as="geometry"/>
                </mxCell>
                <mxCell id="95" value="Email" style="ellipse;whiteSpace=wrap;html=1;align=center;strokeColor=#000000;strokeWidth=4;fontColor=#18141D;fillColor=#FFFFFF;gradientColor=default;" vertex="1" parent="1">
                    <mxGeometry x="-30" y="160" width="75" height="40" as="geometry"/>
                </mxCell>
                <mxCell id="96" value="Password" style="ellipse;whiteSpace=wrap;html=1;align=center;strokeColor=#000000;strokeWidth=4;fontColor=#18141D;fillColor=#FFFFFF;gradientColor=default;" vertex="1" parent="1">
                    <mxGeometry x="-30" y="220" width="100" height="40" as="geometry"/>
                </mxCell>
                <mxCell id="97" value="Phone" style="ellipse;shape=doubleEllipse;margin=3;whiteSpace=wrap;html=1;align=center;strokeColor=#000000;strokeWidth=2;fontColor=#18141D;fillColor=#FFFFFF;gradientColor=default;" vertex="1" parent="1">
                    <mxGeometry x="-30" y="290" width="100" height="40" as="geometry"/>
                </mxCell>
                <mxCell id="102" value="ID" style="ellipse;whiteSpace=wrap;html=1;align=center;fontStyle=4;strokeColor=#000000;strokeWidth=4;fontColor=#18141D;fillColor=#FFFFFF;gradientColor=default;" vertex="1" parent="1">
                    <mxGeometry x="950" y="80" width="80" height="40" as="geometry"/>
                </mxCell>
                <mxCell id="105" value="Date" style="ellipse;whiteSpace=wrap;html=1;align=center;strokeColor=#000000;strokeWidth=4;fontColor=#18141D;fillColor=#FFFFFF;gradientColor=default;" vertex="1" parent="1">
                    <mxGeometry x="1040" y="110" width="80" height="40" as="geometry"/>
                </mxCell>
                <mxCell id="107" value="Status" style="ellipse;whiteSpace=wrap;html=1;align=center;strokeColor=#000000;strokeWidth=4;fontColor=#18141D;fillColor=#FFFFFF;gradientColor=default;" vertex="1" parent="1">
                    <mxGeometry x="1070" y="180" width="80" height="40" as="geometry"/>
                </mxCell>
                <mxCell id="110" value="ID" style="ellipse;whiteSpace=wrap;html=1;align=center;fontStyle=4;strokeColor=#000000;strokeWidth=4;fontColor=#18141D;fillColor=#FFFFFF;gradientColor=default;" vertex="1" parent="1">
                    <mxGeometry x="10" y="440" width="70" height="40" as="geometry"/>
                </mxCell>
                <mxCell id="111" value="Date" style="ellipse;whiteSpace=wrap;html=1;align=center;strokeColor=#000000;strokeWidth=4;fontColor=#18141D;fillColor=#FFFFFF;gradientColor=default;" vertex="1" parent="1">
                    <mxGeometry x="-10" y="510" width="80" height="40" as="geometry"/>
                </mxCell>
                <mxCell id="112" value="Status" style="ellipse;whiteSpace=wrap;html=1;align=center;strokeColor=#000000;strokeWidth=4;fontColor=#18141D;fillColor=#FFFFFF;gradientColor=default;" vertex="1" parent="1">
                    <mxGeometry x="20" y="570" width="80" height="40" as="geometry"/>
                </mxCell>
                <mxCell id="116" value="ID" style="ellipse;whiteSpace=wrap;html=1;align=center;fontStyle=4;strokeColor=#000000;strokeWidth=4;fontColor=#18141D;fillColor=#FFFFFF;gradientColor=default;" vertex="1" parent="1">
                    <mxGeometry x="690" y="620" width="80" height="40" as="geometry"/>
                </mxCell>
                <mxCell id="117" value="FromSquare Row" style="ellipse;whiteSpace=wrap;html=1;align=center;strokeColor=#000000;strokeWidth=4;fontColor=#18141D;fillColor=#FFFFFF;gradientColor=default;" vertex="1" parent="1">
                    <mxGeometry x="800" y="640" width="80" height="40" as="geometry"/>
                </mxCell>
                <mxCell id="118" value="FromSquare Column" style="ellipse;whiteSpace=wrap;html=1;align=center;strokeColor=#000000;strokeWidth=4;fontColor=#18141D;fillColor=#FFFFFF;gradientColor=default;" vertex="1" parent="1">
                    <mxGeometry x="910" y="640" width="80" height="40" as="geometry"/>
                </mxCell>
                <mxCell id="119" value="To Square Row" style="ellipse;whiteSpace=wrap;html=1;align=center;strokeColor=#000000;strokeWidth=4;fontColor=#18141D;fillColor=#FFFFFF;gradientColor=default;" vertex="1" parent="1">
                    <mxGeometry x="1010" y="630" width="80" height="40" as="geometry"/>
                </mxCell>
                <mxCell id="120" value="To Square Column" style="ellipse;whiteSpace=wrap;html=1;align=center;strokeColor=#000000;strokeWidth=4;fontColor=#18141D;fillColor=#FFFFFF;gradientColor=default;" vertex="1" parent="1">
                    <mxGeometry x="1090" y="580" width="80" height="40" as="geometry"/>
                </mxCell>
                <mxCell id="121" value="Piece Type" style="ellipse;whiteSpace=wrap;html=1;align=center;strokeColor=#000000;strokeWidth=4;fontColor=#18141D;fillColor=#FFFFFF;gradientColor=default;" vertex="1" parent="1">
                    <mxGeometry x="1120" y="530" width="80" height="40" as="geometry"/>
                </mxCell>
                <mxCell id="122" value="Piece Color" style="ellipse;whiteSpace=wrap;html=1;align=center;strokeColor=#000000;strokeWidth=4;fontColor=#18141D;fillColor=#FFFFFF;gradientColor=default;" vertex="1" parent="1">
                    <mxGeometry x="1100" y="480" width="80" height="40" as="geometry"/>
                </mxCell>
                <mxCell id="123" value="Killed Piece Type" style="ellipse;whiteSpace=wrap;html=1;align=center;strokeColor=#000000;strokeWidth=4;fontColor=#18141D;fillColor=#FFFFFF;gradientColor=default;" vertex="1" parent="1">
                    <mxGeometry x="1070" y="420" width="80" height="40" as="geometry"/>
                </mxCell>
                <mxCell id="124" value="Is Castling" style="ellipse;whiteSpace=wrap;html=1;align=center;strokeColor=#000000;strokeWidth=4;fontColor=#18141D;fillColor=#FFFFFF;gradientColor=default;" vertex="1" parent="1">
                    <mxGeometry x="1020" y="370" width="80" height="40" as="geometry"/>
                </mxCell>
                <mxCell id="135" value="Send" style="shape=rhombus;perimeter=rhombusPerimeter;whiteSpace=wrap;html=1;align=center;strokeColor=#000000;strokeWidth=4;fontColor=#18141D;fillColor=#FFFFFF;gradientColor=default;" vertex="1" parent="1">
                    <mxGeometry x="530" y="130" width="120" height="60" as="geometry"/>
                </mxCell>
                <mxCell id="136" value="Receive" style="shape=rhombus;perimeter=rhombusPerimeter;whiteSpace=wrap;html=1;align=center;strokeColor=#000000;strokeWidth=4;fontColor=#18141D;fillColor=#FFFFFF;gradientColor=default;" vertex="1" parent="1">
                    <mxGeometry x="530" y="250" width="120" height="60" as="geometry"/>
                </mxCell>
                <mxCell id="137" value="Play" style="shape=rhombus;perimeter=rhombusPerimeter;whiteSpace=wrap;html=1;align=center;strokeColor=#000000;strokeWidth=4;fontColor=#18141D;fillColor=#FFFFFF;gradientColor=default;" vertex="1" parent="1">
                    <mxGeometry x="180" y="365" width="120" height="60" as="geometry"/>
                </mxCell>
                <mxCell id="138" value="Contain" style="shape=rhombus;perimeter=rhombusPerimeter;whiteSpace=wrap;html=1;align=center;strokeColor=#000000;strokeWidth=4;fontColor=#18141D;fillColor=#FFFFFF;gradientColor=default;" vertex="1" parent="1">
                    <mxGeometry x="530" y="520" width="120" height="60" as="geometry"/>
                </mxCell>
                <mxCell id="139" value="Make" style="shape=rhombus;perimeter=rhombusPerimeter;whiteSpace=wrap;html=1;align=center;strokeColor=#000000;strokeWidth=4;fontColor=#18141D;fillColor=#FFFFFF;gradientColor=default;" vertex="1" parent="1">
                    <mxGeometry x="530" y="380" width="120" height="60" as="geometry"/>
                </mxCell>
                <mxCell id="140" value="" style="endArrow=none;html=1;rounded=0;strokeColor=#000000;strokeWidth=2;fontColor=#18141D;exitX=0.5;exitY=1;exitDx=0;exitDy=0;entryX=0.5;entryY=0;entryDx=0;entryDy=0;" edge="1" parent="1" source="68" target="137">
                    <mxGeometry relative="1" as="geometry">
                        <mxPoint x="220" y="290" as="sourcePoint"/>
                        <mxPoint x="380" y="290" as="targetPoint"/>
                    </mxGeometry>
                </mxCell>
                <mxCell id="141" value="" style="shape=link;html=1;rounded=0;strokeColor=#000000;strokeWidth=2;fontColor=#18141D;endArrow=none;endFill=0;exitX=0.5;exitY=1;exitDx=0;exitDy=0;entryX=0.5;entryY=0;entryDx=0;entryDy=0;" edge="1" parent="1" source="137" target="69">
                    <mxGeometry relative="1" as="geometry">
                        <mxPoint x="190" y="450" as="sourcePoint"/>
                        <mxPoint x="350" y="450" as="targetPoint"/>
                    </mxGeometry>
                </mxCell>
                <mxCell id="142" value="1" style="resizable=0;html=1;align=right;verticalAlign=bottom;strokeColor=#000000;strokeWidth=4;fontColor=#18141D;fillColor=#FFFFFF;gradientColor=default;" connectable="0" vertex="1" parent="141">
                    <mxGeometry x="1" relative="1" as="geometry"/>
                </mxCell>
                <mxCell id="143" value="&lt;b&gt;&lt;font style=&quot;font-size: 13px;&quot;&gt;N&lt;/font&gt;&lt;/b&gt;" style="text;html=1;align=center;verticalAlign=middle;resizable=0;points=[];autosize=1;strokeColor=none;fillColor=none;fontColor=#18141D;" vertex="1" parent="1">
                    <mxGeometry x="240" y="240" width="30" height="30" as="geometry"/>
                </mxCell>
                <mxCell id="144" value="&lt;b&gt;M&lt;/b&gt;" style="text;html=1;align=center;verticalAlign=middle;resizable=0;points=[];autosize=1;strokeColor=none;fillColor=none;fontSize=13;fontColor=#18141D;strokeWidth=4;" vertex="1" parent="1">
                    <mxGeometry x="240" y="480" width="30" height="30" as="geometry"/>
                </mxCell>
                <mxCell id="145" value="" style="endArrow=none;html=1;rounded=0;strokeColor=#000000;strokeWidth=2;fontSize=13;fontColor=#18141D;exitX=1;exitY=0.25;exitDx=0;exitDy=0;entryX=0;entryY=0.5;entryDx=0;entryDy=0;" edge="1" parent="1" source="68" target="135">
                    <mxGeometry relative="1" as="geometry">
                        <mxPoint x="420" y="190" as="sourcePoint"/>
                        <mxPoint x="580" y="190" as="targetPoint"/>
                    </mxGeometry>
                </mxCell>
                <mxCell id="153" value="" style="shape=link;html=1;rounded=0;strokeColor=#000000;strokeWidth=2;fontSize=13;fontColor=#18141D;endArrow=none;endFill=0;exitX=1;exitY=0.5;exitDx=0;exitDy=0;entryX=0;entryY=0.25;entryDx=0;entryDy=0;" edge="1" parent="1" source="135" target="3">
                    <mxGeometry relative="1" as="geometry">
                        <mxPoint x="710" y="180" as="sourcePoint"/>
                        <mxPoint x="870" y="180" as="targetPoint"/>
                    </mxGeometry>
                </mxCell>
                <mxCell id="154" value="&lt;b&gt;N&lt;/b&gt;" style="resizable=0;html=1;align=right;verticalAlign=bottom;strokeColor=#000000;strokeWidth=4;fontSize=13;fontColor=#18141D;fillColor=#FFFFFF;gradientColor=default;" connectable="0" vertex="1" parent="153">
                    <mxGeometry x="1" relative="1" as="geometry">
                        <mxPoint x="-10" y="-10" as="offset"/>
                    </mxGeometry>
                </mxCell>
                <mxCell id="155" value="&lt;b&gt;1&lt;/b&gt;" style="text;html=1;align=center;verticalAlign=middle;resizable=0;points=[];autosize=1;strokeColor=none;fillColor=none;fontSize=13;fontColor=#18141D;" vertex="1" parent="1">
                    <mxGeometry x="310" y="150" width="30" height="30" as="geometry"/>
                </mxCell>
                <mxCell id="156" value="" style="shape=link;html=1;rounded=0;strokeColor=#000000;strokeWidth=2;fontSize=13;fontColor=#18141D;endArrow=none;endFill=0;exitX=1;exitY=0.5;exitDx=0;exitDy=0;entryX=0;entryY=0.75;entryDx=0;entryDy=0;" edge="1" parent="1" source="136" target="3">
                    <mxGeometry relative="1" as="geometry">
                        <mxPoint x="640" y="220" as="sourcePoint"/>
                        <mxPoint x="860" y="240" as="targetPoint"/>
                    </mxGeometry>
                </mxCell>
                <mxCell id="157" value="&lt;b&gt;N&lt;/b&gt;" style="resizable=0;html=1;align=right;verticalAlign=bottom;strokeColor=#000000;strokeWidth=4;fontSize=13;fontColor=#18141D;fillColor=#FFFFFF;gradientColor=default;" connectable="0" vertex="1" parent="156">
                    <mxGeometry x="1" relative="1" as="geometry">
                        <mxPoint x="-10" y="-10" as="offset"/>
                    </mxGeometry>
                </mxCell>
                <mxCell id="158" value="" style="endArrow=none;html=1;rounded=0;strokeColor=#000000;strokeWidth=2;fontSize=13;fontColor=#18141D;exitX=1;exitY=0.5;exitDx=0;exitDy=0;entryX=0;entryY=0.5;entryDx=0;entryDy=0;" edge="1" parent="1" source="68" target="136">
                    <mxGeometry relative="1" as="geometry">
                        <mxPoint x="310" y="230" as="sourcePoint"/>
                        <mxPoint x="530" y="210" as="targetPoint"/>
                    </mxGeometry>
                </mxCell>
                <mxCell id="159" value="&lt;b&gt;1&lt;/b&gt;" style="text;html=1;align=center;verticalAlign=middle;resizable=0;points=[];autosize=1;strokeColor=none;fillColor=none;fontSize=13;fontColor=#18141D;" vertex="1" parent="1">
                    <mxGeometry x="320" y="180" width="30" height="30" as="geometry"/>
                </mxCell>
                <mxCell id="160" value="" style="endArrow=none;html=1;rounded=0;strokeColor=#000000;strokeWidth=2;fontSize=13;fontColor=#18141D;exitX=1;exitY=0.75;exitDx=0;exitDy=0;entryX=0;entryY=0.5;entryDx=0;entryDy=0;" edge="1" parent="1" source="68" target="139">
                    <mxGeometry relative="1" as="geometry">
                        <mxPoint x="310" y="260" as="sourcePoint"/>
                        <mxPoint x="530" y="320" as="targetPoint"/>
                    </mxGeometry>
                </mxCell>
                <mxCell id="161" value="&lt;b&gt;1&lt;/b&gt;" style="text;html=1;align=center;verticalAlign=middle;resizable=0;points=[];autosize=1;strokeColor=none;fillColor=none;fontSize=13;fontColor=#18141D;" vertex="1" parent="1">
                    <mxGeometry x="315" y="205" width="30" height="30" as="geometry"/>
                </mxCell>
                <mxCell id="162" value="" style="shape=link;html=1;rounded=0;strokeColor=#000000;strokeWidth=2;fontSize=13;fontColor=#18141D;endArrow=none;endFill=0;exitX=1;exitY=0.5;exitDx=0;exitDy=0;entryX=0.25;entryY=0;entryDx=0;entryDy=0;" edge="1" parent="1" source="139" target="70">
                    <mxGeometry relative="1" as="geometry">
                        <mxPoint x="660" y="365" as="sourcePoint"/>
                        <mxPoint x="880" y="325" as="targetPoint"/>
                    </mxGeometry>
                </mxCell>
                <mxCell id="163" value="&lt;b&gt;N&lt;/b&gt;" style="resizable=0;html=1;align=right;verticalAlign=bottom;strokeColor=#000000;strokeWidth=4;fontSize=13;fontColor=#18141D;fillColor=#FFFFFF;gradientColor=default;" connectable="0" vertex="1" parent="162">
                    <mxGeometry x="1" relative="1" as="geometry">
                        <mxPoint x="-10" y="-10" as="offset"/>
                    </mxGeometry>
                </mxCell>
                <mxCell id="164" value="" style="endArrow=none;html=1;rounded=0;strokeColor=#000000;strokeWidth=2;fontSize=13;fontColor=#18141D;exitX=1;exitY=0.5;exitDx=0;exitDy=0;entryX=0;entryY=0.5;entryDx=0;entryDy=0;" edge="1" parent="1" source="69" target="138">
                    <mxGeometry relative="1" as="geometry">
                        <mxPoint x="310" y="280" as="sourcePoint"/>
                        <mxPoint x="530" y="440" as="targetPoint"/>
                    </mxGeometry>
                </mxCell>
                <mxCell id="165" value="&lt;b&gt;1&lt;/b&gt;" style="text;html=1;align=center;verticalAlign=middle;resizable=0;points=[];autosize=1;strokeColor=none;fillColor=none;fontSize=13;fontColor=#18141D;" vertex="1" parent="1">
                    <mxGeometry x="315" y="515" width="30" height="30" as="geometry"/>
                </mxCell>
                <mxCell id="166" value="" style="shape=link;html=1;rounded=0;strokeColor=#000000;strokeWidth=2;fontSize=13;fontColor=#18141D;endArrow=none;endFill=0;exitX=1;exitY=0.5;exitDx=0;exitDy=0;entryX=0;entryY=0.5;entryDx=0;entryDy=0;" edge="1" parent="1" source="138" target="70">
                    <mxGeometry relative="1" as="geometry">
                        <mxPoint x="580" y="450" as="sourcePoint"/>
                        <mxPoint x="835" y="580" as="targetPoint"/>
                    </mxGeometry>
                </mxCell>
                <mxCell id="167" value="&lt;b&gt;N&lt;/b&gt;" style="resizable=0;html=1;align=right;verticalAlign=bottom;strokeColor=#000000;strokeWidth=4;fontSize=13;fontColor=#18141D;fillColor=#FFFFFF;gradientColor=default;" connectable="0" vertex="1" parent="166">
                    <mxGeometry x="1" relative="1" as="geometry">
                        <mxPoint x="-10" y="-10" as="offset"/>
                    </mxGeometry>
                </mxCell>
            </root>
        </mxGraphModel>
    </diagram>
</mxfile>